<svg width="18" height="18" viewBox="0 0 18 18" fill="none" xmlns="http://www.w3.org/2000/svg">
<path d="M7.24211 14.085L5.72596 15.6434C5.32839 16.0639 4.78918 16.3002 4.22694 16.3002C3.6647 16.3002 3.12548 16.0639 2.72792 15.6434C2.33035 15.2229 2.107 14.6525 2.107 14.0578C2.107 13.4631 2.33035 12.8927 2.72792 12.4722L6.61681 8.34957C6.99851 7.94451 7.51281 7.71014 8.05331 7.69497C8.59381 7.67979 9.11914 7.88496 9.52063 8.26803L9.62342 8.35863C9.78585 8.52685 10.0048 8.61992 10.2321 8.61737C10.4594 8.61482 10.6765 8.51686 10.8355 8.34504C10.9945 8.17323 11.0825 7.94163 11.0801 7.70119C11.0777 7.46075 10.9851 7.23118 10.8226 7.06296C10.774 6.99706 10.7226 6.93357 10.6685 6.87269C9.93723 6.19977 8.99154 5.84598 8.02295 5.88299C7.05435 5.92 6.13526 6.34505 5.45185 7.07202L1.51157 11.1946C0.842023 11.9655 0.479914 12.9802 0.500861 14.0267C0.521808 15.0733 0.924191 16.0709 1.62398 16.8111C2.32377 17.5513 3.26685 17.9769 4.25627 17.9991C5.2457 18.0212 6.20497 17.6382 6.93374 16.93L8.41564 15.3988C8.56195 15.2299 8.64239 15.0087 8.64075 14.7797C8.63912 14.5506 8.55553 14.3307 8.40682 14.1643C8.25811 13.9978 8.0553 13.897 7.83921 13.8823C7.62312 13.8676 7.40978 13.94 7.24211 14.085ZM16.399 1.18261C15.6784 0.425142 14.7038 0 13.6879 0C12.672 0 11.6974 0.425142 10.9768 1.18261L9.49493 2.71385C9.34861 2.8827 9.26818 3.1039 9.26981 3.33294C9.27145 3.56198 9.35503 3.78187 9.50375 3.94835C9.65246 4.11484 9.85526 4.21558 10.0714 4.23029C10.2874 4.245 10.5008 4.1726 10.6685 4.02765L12.1503 2.46922C12.5479 2.04869 13.0871 1.81244 13.6494 1.81244C14.2116 1.81244 14.7508 2.04869 15.1484 2.46922C15.546 2.88975 15.7693 3.46011 15.7693 4.05483C15.7693 4.64955 15.546 5.21991 15.1484 5.64044L11.2595 9.76303C10.8778 10.1681 10.3635 10.4025 9.82299 10.4176C9.28249 10.4328 8.75716 10.2277 8.35567 9.84458L8.25288 9.75397C8.09045 9.58576 7.8715 9.49269 7.64419 9.49524C7.41688 9.49779 7.19984 9.59575 7.04082 9.76756C6.88179 9.93938 6.7938 10.171 6.79621 10.4114C6.79862 10.6519 6.89123 10.8814 7.05367 11.0496C7.11618 11.1166 7.18194 11.1801 7.25068 11.2399C7.98278 11.9108 8.92807 12.2633 9.89607 12.2263C10.8641 12.1893 11.7829 11.7656 12.4673 11.0406L16.3647 6.91799C17.0854 6.16059 17.4935 5.13235 17.4999 4.05777C17.5063 2.9832 17.1106 1.94958 16.399 1.18261Z" fill="#FF4BC1"/>
</svg>
