<svg width="75" height="19" viewBox="0 0 75 19" fill="none" xmlns="http://www.w3.org/2000/svg">
<path d="M8.924 0.887999C14.096 0.887999 17.756 4.584 17.756 9.6C17.756 14.616 14.096 18.312 8.924 18.312C3.752 18.312 0.104 14.616 0.104 9.6C0.104 4.584 3.752 0.887999 8.924 0.887999ZM8.924 4.104C5.84 4.104 3.596 6.336 3.596 9.6C3.596 12.864 5.84 15.096 8.924 15.096C12.02 15.096 14.252 12.864 14.252 9.6C14.252 6.336 12.02 4.104 8.924 4.104ZM35.7836 1.2V18H32.6396L24.1196 6.78L24.1076 18H20.7596V1.2H23.8916L32.4236 12.42V1.2H35.7836ZM52.1553 14.928V18H39.6033V1.2H52.0593V4.272H42.9513V7.992H51.6393V11.064H42.9513V14.928H52.1553ZM58.8757 1.2L58.4437 12.228H55.5637L55.1317 1.2H58.8757ZM57.0157 13.74C58.2277 13.74 59.2837 14.784 59.2837 16.008C59.2837 17.232 58.2277 18.3 57.0157 18.3C55.7917 18.3 54.7237 17.232 54.7237 16.008C54.7237 14.784 55.7917 13.74 57.0157 13.74ZM74.4839 1.2V4.332H69.2759V18H65.9279V4.332H60.7199V1.2H74.4839Z" fill="black"/>
</svg>
