<svg width="24" height="24" viewBox="0 0 24 24" fill="none" xmlns="http://www.w3.org/2000/svg">
<path d="M12 8.44489V20.0004M4 9.33377C4 9.09803 4.09365 8.87193 4.26035 8.70523C4.42705 8.53854 4.65314 8.44489 4.88889 8.44489H19.1111C19.3469 8.44489 19.573 8.53854 19.7397 8.70523C19.9064 8.87193 20 9.09803 20 9.33377V11.1116C20 11.3473 19.9064 11.5734 19.7397 11.7401C19.573 11.9068 19.3469 12.0004 19.1111 12.0004H4.88889C4.65314 12.0004 4.42705 11.9068 4.26035 11.7401C4.09365 11.5734 4 11.3473 4 11.1116V9.33377Z" stroke="#FF4BC1" stroke-width="1.5" stroke-linecap="round" stroke-linejoin="round"/>
<path d="M18.222 12.0004V18.2227C18.222 18.6942 18.0347 19.1464 17.7013 19.4797C17.3679 19.8131 16.9158 20.0004 16.4443 20.0004H7.55537C7.08387 20.0004 6.63168 19.8131 6.29829 19.4797C5.96489 19.1464 5.77759 18.6942 5.77759 18.2227V12.0004M7.99981 8.44489C7.41044 8.44489 6.84521 8.21077 6.42846 7.79402C6.01171 7.37727 5.77759 6.81204 5.77759 6.22267C5.77759 5.6333 6.01171 5.06807 6.42846 4.65132C6.84521 4.23458 7.41044 4.00045 7.99981 4.00045C8.85731 3.98551 9.69761 4.40157 10.4111 5.19437C11.1247 5.98717 11.6783 7.11992 11.9998 8.44489C12.3213 7.11992 12.875 5.98717 13.5885 5.19437C14.302 4.40157 15.1423 3.98551 15.9998 4.00045C16.5892 4.00045 17.1544 4.23458 17.5712 4.65132C17.9879 5.06807 18.222 5.6333 18.222 6.22267C18.222 6.81204 17.9879 7.37727 17.5712 7.79402C17.1544 8.21077 16.5892 8.44489 15.9998 8.44489" stroke="#FF4BC1" stroke-width="1.5" stroke-linecap="round" stroke-linejoin="round"/>
</svg>
