<svg width="12" height="12" viewBox="0 0 12 12" fill="none" xmlns="http://www.w3.org/2000/svg">
<path d="M4.5876 6.68755C4.61547 6.65961 4.64857 6.63745 4.68502 6.62232C4.72147 6.6072 4.76054 6.59942 4.8 6.59942C4.83946 6.59942 4.87853 6.6072 4.91498 6.62232C4.95143 6.63745 4.98453 6.65961 5.0124 6.68755L6 7.67575L6.9876 6.68755C7.04393 6.63122 7.12033 6.59957 7.2 6.59957C7.27967 6.59957 7.35607 6.63122 7.4124 6.68755C7.46873 6.74388 7.50038 6.82029 7.50038 6.89995C7.50038 6.97962 7.46873 7.05602 7.4124 7.11235L6.2124 8.31235C6.18453 8.34029 6.15143 8.36245 6.11498 8.37758C6.07853 8.3927 6.03946 8.40049 6 8.40049C5.96054 8.40049 5.92147 8.3927 5.88502 8.37758C5.84857 8.36245 5.81547 8.34029 5.7876 8.31235L4.5876 7.11235C4.55966 7.08448 4.5375 7.05138 4.52237 7.01493C4.50725 6.97848 4.49946 6.93941 4.49946 6.89995C4.49946 6.86049 4.50725 6.82142 4.52237 6.78497C4.5375 6.74852 4.55966 6.71542 4.5876 6.68755ZM6.9876 5.31235C7.04393 5.36868 7.12033 5.40033 7.2 5.40033C7.27967 5.40033 7.35607 5.36868 7.4124 5.31235C7.46873 5.25602 7.50038 5.17962 7.50038 5.09995C7.50038 5.02029 7.46873 4.94388 7.4124 4.88755L6.2124 3.68755C6.18453 3.65961 6.15143 3.63745 6.11498 3.62232C6.07853 3.6072 6.03946 3.59942 6 3.59942C5.96054 3.59942 5.92147 3.6072 5.88502 3.62232C5.84857 3.63745 5.81547 3.65961 5.7876 3.68755L4.5876 4.88755C4.55971 4.91544 4.53758 4.94856 4.52249 4.985C4.50739 5.02144 4.49962 5.0605 4.49962 5.09995C4.49962 5.1394 4.50739 5.17846 4.52249 5.2149C4.53758 5.25135 4.55971 5.28446 4.5876 5.31235C4.61549 5.34024 4.64861 5.36237 4.68505 5.37747C4.72149 5.39256 4.76055 5.40033 4.8 5.40033C4.83945 5.40033 4.87851 5.39256 4.91495 5.37747C4.95139 5.36237 4.98451 5.34024 5.0124 5.31235L6 4.32415L6.9876 5.31235ZM3 2.09995C3 1.86126 3.09482 1.63234 3.2636 1.46356C3.43239 1.29477 3.66131 1.19995 3.9 1.19995H8.1C8.3387 1.19995 8.56761 1.29477 8.7364 1.46356C8.90518 1.63234 9 1.86126 9 2.09995V9.89995C9 10.1386 8.90518 10.3676 8.7364 10.5363C8.56761 10.7051 8.3387 10.8 8.1 10.8H3.9C3.66131 10.8 3.43239 10.7051 3.2636 10.5363C3.09482 10.3676 3 10.1386 3 9.89995V2.09995ZM3.9 1.79995C3.82044 1.79995 3.74413 1.83156 3.68787 1.88782C3.63161 1.94408 3.6 2.02039 3.6 2.09995V9.89995C3.6 9.97952 3.63161 10.0558 3.68787 10.1121C3.74413 10.1683 3.82044 10.2 3.9 10.2H8.1C8.17956 10.2 8.25587 10.1683 8.31213 10.1121C8.36839 10.0558 8.4 9.97952 8.4 9.89995V2.09995C8.4 2.02039 8.36839 1.94408 8.31213 1.88782C8.25587 1.83156 8.17956 1.79995 8.1 1.79995H3.9Z" fill="#D1D1D1"/>
</svg>
