<svg width="192" height="105" viewBox="0 0 192 105" fill="none" xmlns="http://www.w3.org/2000/svg">
<path d="M25.7673 43.581C39.4068 43.581 49.0773 53.283 49.0773 66.45C49.0773 79.617 39.4068 89.319 25.7673 89.319C12.1278 89.319 2.4573 79.617 2.4573 66.45C2.4573 53.283 12.1278 43.581 25.7673 43.581ZM25.7673 55.047C19.3413 55.047 14.8998 59.709 14.8998 66.45C14.8998 73.191 19.3413 77.853 25.7673 77.853C32.1933 77.853 36.6348 73.191 36.6348 66.45C36.6348 59.709 32.1933 55.047 25.7673 55.047ZM94.3453 44.4V88.5H82.6903L64.5148 63.7095V88.5H52.5448V44.4H64.1998L82.3753 69.1905V44.4H94.3453ZM133.857 77.853V88.5H99.3961V44.4H133.857V55.047H111.366V60.8745H132.282V71.5215H111.366V77.853H133.857ZM151.164 44.4L149.904 72.183H139.32L138.06 44.4H151.164ZM144.612 75.4905C148.298 75.4905 151.479 78.672 151.479 82.3575C151.479 86.106 148.298 89.319 144.612 89.319C140.864 89.319 137.651 86.106 137.651 82.3575C137.651 78.672 140.864 75.4905 144.612 75.4905ZM190.463 44.4V55.425H177.926V88.5H165.956V55.425H153.419V44.4H190.463Z" fill="url(#paint0_linear_3_148)"/>
<path d="M33.8751 9.5L27.1551 30.515H23.8851L18.2601 12.98L12.6351 30.515H9.38008L2.64508 9.5H5.42008L11.0451 27.53L16.7901 9.485H19.7901L25.5501 27.53L31.1601 9.5H33.8751ZM48.7363 16.25V30.5H46.2763V28.595C45.1513 29.93 43.4863 30.8 41.2513 30.8C37.2463 30.8 34.1263 27.68 34.1263 23.375C34.1263 19.07 37.2463 15.95 41.2513 15.95C43.4863 15.95 45.1513 16.82 46.2763 18.17V16.25H48.7363ZM41.5363 18.26C38.5663 18.26 36.6313 20.54 36.6313 23.375C36.6313 26.21 38.6113 28.505 41.5363 28.505C44.4163 28.505 46.4263 26.3 46.4263 23.375C46.4263 20.465 44.4163 18.26 41.5363 18.26ZM60.422 15.95C63.932 15.95 66.362 18.23 66.362 21.65V30.5H63.902V22.445C63.902 19.82 62.462 18.275 59.987 18.275C57.692 18.275 55.772 19.85 55.772 22.505V30.5H53.327V16.25H55.757V18.11C56.927 16.505 58.772 15.95 60.422 15.95ZM77.8982 15.95C81.4082 15.95 83.8382 18.23 83.8382 21.65V30.5H81.3782V22.445C81.3782 19.82 79.9382 18.275 77.4632 18.275C75.1682 18.275 73.2482 19.85 73.2482 22.505V30.5H70.8032V16.25H73.2332V18.11C74.4032 16.505 76.2482 15.95 77.8982 15.95ZM101.809 16.25V30.5H99.3494V28.595C98.2244 29.93 96.5594 30.8 94.3244 30.8C90.3194 30.8 87.1994 27.68 87.1994 23.375C87.1994 19.07 90.3194 15.95 94.3244 15.95C96.5594 15.95 98.2244 16.82 99.3494 18.17V16.25H101.809ZM94.6094 18.26C91.6394 18.26 89.7044 20.54 89.7044 23.375C89.7044 26.21 91.6844 28.505 94.6094 28.505C97.4894 28.505 99.4994 26.3 99.4994 23.375C99.4994 20.465 97.4894 18.26 94.6094 18.26ZM119.797 15.95C122.002 15.95 123.622 16.82 124.702 18.185V16.25H127.162V29.51C127.162 34.115 124.087 36.74 119.587 36.74C117.367 36.74 115.072 36.065 113.617 34.895L114.682 32.915C116.047 33.89 117.742 34.505 119.587 34.505C122.647 34.505 124.702 32.78 124.702 29.615V28.355C123.622 29.72 122.002 30.575 119.797 30.575C115.792 30.575 112.747 27.605 112.747 23.255C112.747 18.92 115.792 15.95 119.797 15.95ZM120.082 18.26C117.157 18.26 115.252 20.51 115.252 23.255C115.252 26.03 117.157 28.265 120.082 28.265C122.917 28.265 124.912 26.105 124.912 23.255C124.912 20.42 122.917 18.26 120.082 18.26ZM134.188 16.25V30.5H131.743V16.25H134.188ZM132.943 9.485C133.918 9.485 134.698 10.25 134.698 11.24C134.698 12.215 133.918 12.95 132.943 12.95C131.968 12.95 131.218 12.215 131.218 11.24C131.218 10.25 131.968 9.485 132.943 9.485ZM148.075 16.25V18.485H142.6V30.5H140.14V18.485H136.975V16.25H140.14V13.82C140.14 10.835 141.52 8.6 144.88 8.6C146.5 8.6 147.775 9.05 148.795 9.665L147.91 11.72C147.16 11.27 146.095 10.895 145.045 10.895C143.35 10.895 142.6 11.975 142.6 13.82V16.25H148.075ZM160.404 16.25V18.485H154.419V25.43C154.419 27.575 155.559 28.505 157.104 28.505C158.154 28.505 159.204 28.1 160.014 27.545L161.169 29.39C160.074 30.185 158.649 30.8 156.894 30.8C153.804 30.8 151.959 29.105 151.959 25.475V18.485H148.914V16.25H151.959V11.78H154.419V16.25H160.404ZM173.595 16.25V30.5H171.15V16.25H173.595ZM172.35 9.485C173.325 9.485 174.105 10.25 174.105 11.24C174.105 12.215 173.325 12.95 172.35 12.95C171.375 12.95 170.625 12.215 170.625 11.24C170.625 10.25 171.375 9.485 172.35 9.485ZM187.871 16.25V18.485H181.886V25.43C181.886 27.575 183.026 28.505 184.571 28.505C185.621 28.505 186.671 28.1 187.481 27.545L188.636 29.39C187.541 30.185 186.116 30.8 184.361 30.8C181.271 30.8 179.426 29.105 179.426 25.475V18.485H176.381V16.25H179.426V11.78H181.886V16.25H187.871Z" fill="url(#paint1_linear_3_148)"/>
<defs>
<linearGradient id="paint0_linear_3_148" x1="0.5" y1="24.5" x2="14.2158" y2="127.995" gradientUnits="userSpaceOnUse">
<stop stop-color="#FF4BC1"/>
<stop offset="1" stop-color="#FF4341"/>
</linearGradient>
<linearGradient id="paint1_linear_3_148" x1="1.5" y1="0.5" x2="4.68619" y2="50.3197" gradientUnits="userSpaceOnUse">
<stop stop-color="#FF4BC1"/>
<stop offset="1" stop-color="#FF4341"/>
</linearGradient>
</defs>
</svg>
