<svg width="191" height="104" viewBox="0 0 191 104" fill="none" xmlns="http://www.w3.org/2000/svg">
<path d="M25.2673 43.081C38.9068 43.081 48.5773 52.783 48.5773 65.95C48.5773 79.117 38.9068 88.819 25.2673 88.819C11.6278 88.819 1.9573 79.117 1.9573 65.95C1.9573 52.783 11.6278 43.081 25.2673 43.081ZM25.2673 54.547C18.8413 54.547 14.3998 59.209 14.3998 65.95C14.3998 72.691 18.8413 77.353 25.2673 77.353C31.6933 77.353 36.1348 72.691 36.1348 65.95C36.1348 59.209 31.6933 54.547 25.2673 54.547ZM93.8453 43.9V88H82.1903L64.0148 63.2095V88H52.0448V43.9H63.6998L81.8753 68.6905V43.9H93.8453ZM133.357 77.353V88H98.8961V43.9H133.357V54.547H110.866V60.3745H131.782V71.0215H110.866V77.353H133.357ZM150.664 43.9L149.404 71.683H138.82L137.56 43.9H150.664ZM144.112 74.9905C147.798 74.9905 150.979 78.172 150.979 81.8575C150.979 85.606 147.798 88.819 144.112 88.819C140.364 88.819 137.151 85.606 137.151 81.8575C137.151 78.172 140.364 74.9905 144.112 74.9905ZM189.963 43.9V54.925H177.426V88H165.456V54.925H152.919V43.9H189.963Z" fill="white"/>
<path d="M33.3751 9L26.6551 30.015H23.3851L17.7601 12.48L12.1351 30.015H8.88008L2.14508 9H4.92008L10.5451 27.03L16.2901 8.985H19.2901L25.0501 27.03L30.6601 9H33.3751ZM48.2363 15.75V30H45.7763V28.095C44.6513 29.43 42.9863 30.3 40.7513 30.3C36.7463 30.3 33.6263 27.18 33.6263 22.875C33.6263 18.57 36.7463 15.45 40.7513 15.45C42.9863 15.45 44.6513 16.32 45.7763 17.67V15.75H48.2363ZM41.0363 17.76C38.0663 17.76 36.1313 20.04 36.1313 22.875C36.1313 25.71 38.1113 28.005 41.0363 28.005C43.9163 28.005 45.9263 25.8 45.9263 22.875C45.9263 19.965 43.9163 17.76 41.0363 17.76ZM59.922 15.45C63.432 15.45 65.862 17.73 65.862 21.15V30H63.402V21.945C63.402 19.32 61.962 17.775 59.487 17.775C57.192 17.775 55.272 19.35 55.272 22.005V30H52.827V15.75H55.257V17.61C56.427 16.005 58.272 15.45 59.922 15.45ZM77.3982 15.45C80.9082 15.45 83.3382 17.73 83.3382 21.15V30H80.8782V21.945C80.8782 19.32 79.4382 17.775 76.9632 17.775C74.6682 17.775 72.7482 19.35 72.7482 22.005V30H70.3032V15.75H72.7332V17.61C73.9032 16.005 75.7482 15.45 77.3982 15.45ZM101.309 15.75V30H98.8494V28.095C97.7244 29.43 96.0594 30.3 93.8244 30.3C89.8194 30.3 86.6994 27.18 86.6994 22.875C86.6994 18.57 89.8194 15.45 93.8244 15.45C96.0594 15.45 97.7244 16.32 98.8494 17.67V15.75H101.309ZM94.1094 17.76C91.1394 17.76 89.2044 20.04 89.2044 22.875C89.2044 25.71 91.1844 28.005 94.1094 28.005C96.9894 28.005 98.9994 25.8 98.9994 22.875C98.9994 19.965 96.9894 17.76 94.1094 17.76ZM119.297 15.45C121.502 15.45 123.122 16.32 124.202 17.685V15.75H126.662V29.01C126.662 33.615 123.587 36.24 119.087 36.24C116.867 36.24 114.572 35.565 113.117 34.395L114.182 32.415C115.547 33.39 117.242 34.005 119.087 34.005C122.147 34.005 124.202 32.28 124.202 29.115V27.855C123.122 29.22 121.502 30.075 119.297 30.075C115.292 30.075 112.247 27.105 112.247 22.755C112.247 18.42 115.292 15.45 119.297 15.45ZM119.582 17.76C116.657 17.76 114.752 20.01 114.752 22.755C114.752 25.53 116.657 27.765 119.582 27.765C122.417 27.765 124.412 25.605 124.412 22.755C124.412 19.92 122.417 17.76 119.582 17.76ZM133.688 15.75V30H131.243V15.75H133.688ZM132.443 8.985C133.418 8.985 134.198 9.75 134.198 10.74C134.198 11.715 133.418 12.45 132.443 12.45C131.468 12.45 130.718 11.715 130.718 10.74C130.718 9.75 131.468 8.985 132.443 8.985ZM147.575 15.75V17.985H142.1V30H139.64V17.985H136.475V15.75H139.64V13.32C139.64 10.335 141.02 8.1 144.38 8.1C146 8.1 147.275 8.55 148.295 9.165L147.41 11.22C146.66 10.77 145.595 10.395 144.545 10.395C142.85 10.395 142.1 11.475 142.1 13.32V15.75H147.575ZM159.904 15.75V17.985H153.919V24.93C153.919 27.075 155.059 28.005 156.604 28.005C157.654 28.005 158.704 27.6 159.514 27.045L160.669 28.89C159.574 29.685 158.149 30.3 156.394 30.3C153.304 30.3 151.459 28.605 151.459 24.975V17.985H148.414V15.75H151.459V11.28H153.919V15.75H159.904ZM173.095 15.75V30H170.65V15.75H173.095ZM171.85 8.985C172.825 8.985 173.605 9.75 173.605 10.74C173.605 11.715 172.825 12.45 171.85 12.45C170.875 12.45 170.125 11.715 170.125 10.74C170.125 9.75 170.875 8.985 171.85 8.985ZM187.371 15.75V17.985H181.386V24.93C181.386 27.075 182.526 28.005 184.071 28.005C185.121 28.005 186.171 27.6 186.981 27.045L188.136 28.89C187.041 29.685 185.616 30.3 183.861 30.3C180.771 30.3 178.926 28.605 178.926 24.975V17.985H175.881V15.75H178.926V11.28H181.386V15.75H187.371Z" fill="white"/>
</svg>
